REM MD5 68c2af78ad38f3ec30c4befa5939d78b
FILE "Sportweek Player Manager 2000 (Netherlands) (En,Fr).bin" BINARY
  TRACK 01 MODE2/2352
    INDEX 01 00:00:00
  TRACK 02 AUDIO
    INDEX 00 06:22:24
    INDEX 01 06:24:24
  TRACK 03 AUDIO
    INDEX 00 06:33:22
    INDEX 01 06:35:22
  TRACK 04 AUDIO
    INDEX 00 07:30:31
    INDEX 01 07:32:31
  TRACK 05 AUDIO
    INDEX 00 10:05:59
    INDEX 01 10:07:59
REM LEADOUT 11:07:59
